<svg width="38" height="18" viewBox="0 0 38 18" fill="none" xmlns="http://www.w3.org/2000/svg">
<rect width="38" height="18" fill="#none"/>
<path d="M0.0568182 18V9.27273H3.00568C3.69034 9.27273 4.25 9.39631 4.68466 9.64347C5.12216 9.88778 5.44602 10.2188 5.65625 10.6364C5.86648 11.054 5.97159 11.5199 5.97159 12.0341C5.97159 12.5483 5.86648 13.0156 5.65625 13.4361C5.44886 13.8565 5.12784 14.1918 4.69318 14.4418C4.25852 14.6889 3.7017 14.8125 3.02273 14.8125H0.909091V13.875H2.98864C3.45739 13.875 3.83381 13.794 4.1179 13.6321C4.40199 13.4702 4.60795 13.2514 4.7358 12.9759C4.86648 12.6974 4.93182 12.3835 4.93182 12.0341C4.93182 11.6847 4.86648 11.3722 4.7358 11.0966C4.60795 10.821 4.40057 10.6051 4.11364 10.4489C3.8267 10.2898 3.44602 10.2102 2.97159 10.2102H1.11364V18H0.0568182ZM8.73082 9.27273V18H7.67401V9.27273H8.73082ZM11.3612 9.27273L13.6112 12.9034H13.6793L15.9293 9.27273H17.1737L14.4293 13.6364L17.1737 18H15.9293L13.6793 14.4375H13.6112L11.3612 18H10.1168L12.9293 13.6364L10.1168 9.27273H11.3612Z" fill="#6FEEFF"/>
<path d="M19.6058 9.27273V18H18.549V9.27273H19.6058ZM21.7248 18V9.27273H26.9918V10.2102H22.7816V13.1591H26.7191V14.0966H22.7816V17.0625H27.06V18H21.7248Z" fill="#56FFA6"/>
<path d="M26.9859 5.06272C27.3778 3.16104 29.0615 1.73121 31.0793 1.73121C31.5369 1.73121 31.9774 1.80477 32.3895 1.94071L34.3303 0L37.0169 2.68671L35.0624 4.64117C35.19 5.04152 35.2587 5.46807 35.2587 5.91067C35.2587 7.85552 33.9303 9.4901 32.1314 9.95658L25 11.9899L26.9859 5.06272Z" fill="white"/>
<path d="M34.3303 1.07465L32.9269 2.47804L32.596 2.80898L32.1515 2.66239C31.7953 2.54256 31.4741 2.48853 31.0793 2.49111C29.4293 2.49111 28.0507 3.66045 27.7301 5.2161L27.7243 5.24437L27.7164 5.27213L26.1076 10.8839L31.923 9.2258L31.9318 9.2233L31.9406 9.221C33.4127 8.83929 34.4988 7.50086 34.4988 5.91067C34.5013 5.52876 34.4507 5.21781 34.3383 4.87175L34.198 4.43095L34.5251 4.10385L35.9423 2.68671L34.3303 1.07465ZM26.9859 5.06272C27.3778 3.16104 29.0615 1.73121 31.0793 1.73121C31.5369 1.73121 31.9774 1.80477 32.3895 1.94071L33.793 0.537327L34.3303 0L34.8676 0.537327L36.4796 2.14938L37.0169 2.68671L36.4796 3.22404L35.0624 4.64117C35.19 5.04153 35.2587 5.46807 35.2587 5.91067C35.2587 7.85552 33.9303 9.4901 32.1314 9.95658L25.8609 11.7445L25 11.9899L25.2467 11.1294L26.9859 5.06272Z" fill="black"/>
<path d="M32.2192 5.91046C32.2192 5.28094 31.7089 4.77061 31.0794 4.77061C30.4498 4.77061 29.9395 5.28094 29.9395 5.91046C29.9395 6.53999 30.4498 7.05032 31.0794 7.05032C31.7089 7.05032 32.2192 6.53999 32.2192 5.91046Z" fill="black"/>
<path d="M26.0287 11.4987L25.76 11.7674L25.2227 11.23L25.4914 10.9614L30.8107 5.64204L31.0794 5.37338L31.6167 5.91071L31.348 6.17938L26.0287 11.4987Z" fill="black"/>
</svg>
